<svg width="130" height="130" viewBox="0 0 130 130" fill="none" xmlns="http://www.w3.org/2000/svg">
<g filter="url(#filter0_d_1_263)">
<circle cx="59" cy="59" r="45" fill="white"/>
</g>
<path d="M78.3879 78.3856H35.5308L36.6328 73.9571C37.1022 72.0999 38.4695 70.6305 40.2655 70.0387L48.4695 67.304C49.6124 66.8346 50.2655 65.8142 50.6532 64.7122C50.7961 64.304 50.8981 63.8958 50.9797 63.5081C51.0206 63.3244 51.0614 63.1407 51.0818 62.9775C51.2246 62.0183 51.2246 61.1816 51.2246 60.8346C49.8981 59.7326 48.2655 57.8346 48.2655 56.2224C48.2655 54.6101 47.3471 54.3652 47.3471 54.3652C47.3471 54.3652 46.4287 52.0591 46.4287 50.6714C46.4287 50.6714 46.4287 50.6509 46.4491 50.6305C46.5104 50.4469 46.8165 49.753 47.4287 49.753C47.4287 49.753 47.4287 49.0387 47.4287 47.9979C47.4287 47.9775 47.4287 47.9775 47.4287 47.9571C47.4695 46.9775 47.5308 45.7326 47.5308 44.202C47.5308 42.9775 48.1022 41.4877 49.0818 40.0999C49.4491 39.8754 49.7553 39.7938 49.7553 39.5897C49.7553 39.4469 49.7961 39.2836 49.8573 39.0999C51.5716 37.1203 54.1022 35.5285 56.9593 35.5285C59.8165 35.5285 62.3471 37.1203 64.0614 39.0999C64.1226 39.2836 64.1634 39.4469 64.1634 39.5897C64.1634 39.7938 64.4695 39.8754 64.8369 40.0999C65.8165 41.4877 66.3879 42.9775 66.3879 44.202C66.3879 45.7326 66.4491 46.9775 66.4899 47.9571V47.9979V49.753C67.1022 49.753 67.4083 50.4469 67.4695 50.6305C67.4899 50.6509 67.4899 50.6714 67.4899 50.6714C67.4899 52.0591 66.5716 54.3652 66.5716 54.3652C66.5716 54.3652 65.6532 54.6101 65.6532 56.2224C65.6532 57.8346 64.0206 59.7326 62.694 60.8346C62.694 61.1611 62.694 61.9979 62.8369 62.9775C62.8573 63.1407 62.8981 63.3244 62.9389 63.5081C63.0206 63.9162 63.1226 64.304 63.2655 64.7122C63.6532 65.8142 64.3063 66.8346 65.4491 67.304L73.6532 70.0387C75.4491 70.6305 76.8165 72.0999 77.2859 73.9571L78.3879 78.3856Z" fill="white"/>
<path d="M71.245 82.4673C71.245 82.4673 82.4695 77.7306 82.4695 68.2551C82.4695 64.4653 82.4695 59.7265 82.4695 59.7265L71.245 55.9367L60.0205 59.7265V68.2551C60.0205 77.7306 71.245 82.4673 71.245 82.4673Z" fill="#CF91A4"/>
<path d="M55.3063 60.8346C55.3063 61.1816 55.3063 62.0183 55.1634 62.9775C55.143 63.1407 55.1022 63.3244 55.0614 63.5081C54.9797 63.8958 54.8777 64.304 54.7348 64.7122C54.3471 65.8142 53.694 66.8346 52.5512 67.304L44.3471 70.0387C42.5512 70.6305 41.1838 72.0999 40.7144 73.9571L39.6124 78.3856H35.5308L36.6328 73.9571C37.1022 72.0999 38.4695 70.6305 40.2655 70.0387L48.4695 67.304C49.6124 66.8346 50.2655 65.8142 50.6532 64.7122C50.7961 64.304 50.8981 63.8958 50.9797 63.5081C51.0206 63.3244 51.0614 63.1407 51.0818 62.9775C51.2246 62.0183 51.2246 61.1816 51.2246 60.8346C49.8981 59.7326 48.2655 57.8346 48.2655 56.2224C48.2655 54.6101 47.3471 54.3652 47.3471 54.3652C47.3471 54.3652 46.4287 52.0591 46.4287 50.6714C46.4287 50.6714 46.4287 50.6509 46.4491 50.6305C46.5104 50.4469 46.8165 49.753 47.4287 49.753C47.4287 49.753 47.4287 49.0387 47.4287 47.9979C47.4287 47.9775 47.4287 47.9775 47.4287 47.9571C47.4695 46.9775 47.5308 45.7326 47.5308 44.202C47.5308 42.9775 48.1022 41.4877 49.0818 40.0999C49.4491 39.8754 49.7552 39.7938 49.7552 39.5897C49.7552 39.4469 49.7961 39.2836 49.8573 39.0999C51.5716 37.1203 54.1022 35.5285 56.9593 35.5285C57.6532 35.5285 58.3471 35.6305 59.0001 35.8142C57.0001 36.3244 55.2246 37.6101 53.9389 39.0999C53.8777 39.2836 53.8369 39.4469 53.8369 39.5897C53.8369 39.7938 53.5308 39.8754 53.1634 40.0999C52.1838 41.4877 51.6124 42.9775 51.6124 44.202C51.6124 45.7326 51.5512 46.9775 51.5103 47.9571V47.9979V49.753C50.8981 49.753 50.592 50.4469 50.5308 50.6305C50.5104 50.6509 50.5104 50.6714 50.5104 50.6714C50.5104 52.0591 51.4287 54.3652 51.4287 54.3652C51.4287 54.3652 52.3471 54.6101 52.3471 56.2224C52.3471 57.8346 53.9797 59.7326 55.3063 60.8346Z" fill="#E4E4E4"/>
<path d="M73.2858 81.4061C72.0817 82.1204 71.245 82.4673 71.245 82.4673C71.245 82.4673 60.0205 77.7326 60.0205 68.2632C60.0205 62.5694 60.0205 59.7326 60.0205 59.7326L71.245 55.9367L73.2858 56.6306L64.1021 59.7326V68.2632C64.1021 75.1612 70.0613 79.549 73.2858 81.4061Z" fill="#9E2349"/>
<path d="M57 79.9163H35.5306C35.0612 79.9163 34.6143 79.7 34.3245 79.3286C34.0327 78.9571 33.9327 78.4735 34.0449 78.0163L35.1469 73.5878C35.7449 71.2143 37.4796 69.3449 39.7857 68.5857L47.9837 65.8531C48.9286 65.4571 49.5735 63.8449 49.6796 61.5122C48.5776 60.4837 46.7347 58.4306 46.7347 56.2245C46.7347 55.9714 46.698 55.8163 46.6714 55.7408C46.3347 55.5755 46.0673 55.2898 45.9265 54.9347C45.8204 54.6714 44.898 52.3082 44.898 50.6735C44.898 50.551 44.9122 50.4286 44.9408 50.3082C45.0776 49.749 45.3878 49.1878 45.8449 48.7878C45.8551 48.6061 45.8653 48.4102 45.8755 48.202C45.9286 47.2 46 45.8653 46 44.2041C46 40.1898 50.7061 34 56.9592 34C62.2327 34 64.9184 36.7694 65.5469 38.7408C66.8143 39.4878 68.0204 40.8163 68.0204 44.2041V48.8061C68.4571 49.1776 68.7735 49.6837 68.9408 50.1878C68.9939 50.3449 69.0204 50.5082 69.0204 50.6735L67.3571 50.7184L66.0388 51.1592C66.049 51.1592 66.2367 51.2878 66.4898 51.2878C65.6449 51.2878 64.9592 50.602 64.9592 49.7571V44.2061C64.9592 41.8571 64.3082 41.5286 63.8755 41.3122C63.5367 41.1388 62.6327 40.6837 62.6327 39.5898C62.5551 39.2612 61.1531 37.0592 56.9592 37.0592C52.4755 37.0592 49.0612 41.8204 49.0612 44.202C49.0612 45.9306 48.9898 47.3184 48.9327 48.3612C48.902 48.9408 48.8776 49.4061 48.8776 49.7531C48.8776 50.3653 48.5184 50.8939 47.998 51.1388C48.098 51.802 48.3633 52.6796 48.5959 53.3388C49.2122 53.8367 49.7959 54.7429 49.7959 56.2224C49.7959 57.0408 50.8306 58.5184 52.2041 59.6571C52.5531 59.949 52.7571 60.3796 52.7571 60.8347C52.7571 64.9286 51.4429 67.7286 49.0571 68.7184L40.7531 71.4918C39.4408 71.9245 38.4592 72.9857 38.1204 74.3327L37.4898 76.8551H57V79.9163ZM46.949 55.8429H46.9531C46.951 55.8449 46.949 55.8429 46.949 55.8429Z" fill="#2F3130"/>
<path d="M71.2449 83.9979C71.0408 83.9979 70.8408 83.9571 70.649 83.8775C70.1531 83.6673 58.4898 78.6265 58.4898 68.255V59.7265C58.4898 59.0693 58.9082 58.4877 59.5306 58.2775L70.7551 54.4877C71.0735 54.3795 71.4163 54.3795 71.7347 54.4877L82.9592 58.2775C83.5816 58.4877 84 59.0714 84 59.7265V68.255C84 78.6265 72.3367 83.6693 71.8408 83.8775C71.649 83.9571 71.449 83.9979 71.2449 83.9979ZM61.551 60.8265V68.255C61.551 75.4305 69.047 79.6857 71.2429 80.7775C73.4367 79.6795 80.9388 75.404 80.9388 68.255V60.8265L71.2449 57.553L61.551 60.8265Z" fill="#2F3130"/>
<path d="M70.2248 73.7937C70.1962 73.7937 70.1697 73.7937 70.1411 73.7917C69.7044 73.7672 69.3024 73.559 69.0289 73.2203L64.9473 68.1182L67.3391 66.2039L70.3534 69.9713L76.286 64.0386L78.4513 66.2039L71.3085 73.3468C71.0207 73.6325 70.6289 73.7937 70.2248 73.7937Z" fill="#2F3130"/>
<defs>
<filter id="filter0_d_1_263" x="0" y="0" width="130" height="130" filterUnits="userSpaceOnUse" color-interpolation-filters="sRGB">
<feFlood flood-opacity="0" result="BackgroundImageFix"/>
<feColorMatrix in="SourceAlpha" type="matrix" values="0 0 0 0 0 0 0 0 0 0 0 0 0 0 0 0 0 0 127 0" result="hardAlpha"/>
<feOffset dx="6" dy="6"/>
<feGaussianBlur stdDeviation="10"/>
<feComposite in2="hardAlpha" operator="out"/>
<feColorMatrix type="matrix" values="0 0 0 0 0.490196 0 0 0 0 0.34902 0 0 0 0 0.764706 0 0 0 0.2 0"/>
<feBlend mode="normal" in2="BackgroundImageFix" result="effect1_dropShadow_1_263"/>
<feBlend mode="normal" in="SourceGraphic" in2="effect1_dropShadow_1_263" result="shape"/>
</filter>
</defs>
</svg>
