<svg width="130" height="130" viewBox="0 0 130 130" fill="none" xmlns="http://www.w3.org/2000/svg">
<g filter="url(#filter0_d_1_338)">
<circle cx="59" cy="59" r="45" fill="white"/>
</g>
<path d="M58.9998 43.8542C61.0134 43.8542 62.6457 42.2219 62.6457 40.2083C62.6457 38.1948 61.0134 36.5625 58.9998 36.5625C56.9863 36.5625 55.354 38.1948 55.354 40.2083C55.354 42.2219 56.9863 43.8542 58.9998 43.8542Z" fill="white"/>
<path d="M50.146 54.2708V53.2292C50.146 50.9271 52.0106 49.0625 54.3127 49.0625H63.6877C65.9898 49.0625 67.8543 50.9271 67.8543 53.2292V54.2708H50.146Z" fill="#CF91A4"/>
<path d="M73.5833 73.0208C75.5969 73.0208 77.2292 71.3885 77.2292 69.375C77.2292 67.3615 75.5969 65.7292 73.5833 65.7292C71.5698 65.7292 69.9375 67.3615 69.9375 69.375C69.9375 71.3885 71.5698 73.0208 73.5833 73.0208Z" fill="white"/>
<path d="M64.729 83.4376V82.3959C64.729 80.0938 66.5936 78.2292 68.8957 78.2292H78.2707C80.5728 78.2292 82.4373 80.0938 82.4373 82.3959V83.4376H64.729Z" fill="#CF91A4"/>
<path d="M44.4168 73.0208C46.4304 73.0208 48.0627 71.3885 48.0627 69.375C48.0627 67.3615 46.4304 65.7292 44.4168 65.7292C42.4033 65.7292 40.771 67.3615 40.771 69.375C40.771 71.3885 42.4033 73.0208 44.4168 73.0208Z" fill="white"/>
<path d="M35.5625 83.4376V82.3959C35.5625 80.0938 37.4271 78.2292 39.7292 78.2292H49.1042C51.4063 78.2292 53.2708 80.0938 53.2708 82.3959V83.4376H35.5625Z" fill="#CF91A4"/>
<path d="M43.8958 78.2292H39.7292C37.4271 78.2292 35.5625 80.0938 35.5625 82.3959V83.4376H39.7292V82.3959C39.7292 80.0938 41.5938 78.2292 43.8958 78.2292Z" fill="#9E2349"/>
<path d="M73.0623 78.2292H68.8957C66.5936 78.2292 64.729 80.0938 64.729 82.3959V83.4376H68.8957V82.3959C68.8957 80.0938 70.7602 78.2292 73.0623 78.2292Z" fill="#9E2349"/>
<path d="M58.4793 49.0625H54.3127C52.0106 49.0625 50.146 50.9271 50.146 53.2292V54.2708H54.3127V53.2292C54.3127 50.9271 56.1772 49.0625 58.4793 49.0625Z" fill="#9E2349"/>
<path d="M59.5207 40.2083C59.5207 38.9708 60.1394 37.8813 61.0832 37.2229C60.4915 36.8104 59.7748 36.5625 58.9998 36.5625C56.9873 36.5625 55.354 38.1958 55.354 40.2083C55.354 42.2208 56.9873 43.8542 58.9998 43.8542C59.7748 43.8542 60.4915 43.6083 61.0832 43.1938C60.1394 42.5354 59.5207 41.4458 59.5207 40.2083Z" fill="white"/>
<path d="M44.9377 69.375C44.9377 68.1375 45.5564 67.0479 46.5002 66.3896C45.9085 65.9771 45.1918 65.7292 44.4168 65.7292C42.4043 65.7292 40.771 67.3625 40.771 69.375C40.771 71.3875 42.4043 73.0208 44.4168 73.0208C45.1918 73.0208 45.9085 72.775 46.5002 72.3604C45.5564 71.7021 44.9377 70.6125 44.9377 69.375Z" fill="white"/>
<path d="M74.1042 69.375C74.1042 68.1375 74.7229 67.0479 75.6667 66.3896C75.075 65.9771 74.3583 65.7292 73.5833 65.7292C71.5708 65.7292 69.9375 67.3625 69.9375 69.375C69.9375 71.3875 71.5708 73.0208 73.5833 73.0208C74.3583 73.0208 75.075 72.775 75.6667 72.3604C74.7229 71.7021 74.1042 70.6125 74.1042 69.375Z" fill="white"/>
<path d="M58.9998 45.4167C56.129 45.4167 53.7915 43.0792 53.7915 40.2083C53.7915 37.3375 56.129 35 58.9998 35C61.8707 35 64.2082 37.3375 64.2082 40.2083C64.2082 43.0792 61.8707 45.4167 58.9998 45.4167ZM58.9998 38.125C57.8519 38.125 56.9165 39.0604 56.9165 40.2083C56.9165 41.3563 57.8519 42.2917 58.9998 42.2917C60.1478 42.2917 61.0832 41.3563 61.0832 40.2083C61.0832 39.0604 60.1478 38.125 58.9998 38.125Z" fill="#2F3130"/>
<path d="M69.4168 54.2709H66.2918V53.2293C66.2918 51.7938 65.1231 50.6251 63.6877 50.6251H54.3127C52.8772 50.6251 51.7085 51.7938 51.7085 53.2293V54.2709H48.5835V53.2293C48.5835 50.0688 51.1522 47.5001 54.3127 47.5001H63.6877C66.8481 47.5001 69.4168 50.0688 69.4168 53.2293V54.2709Z" fill="#2F3130"/>
<path d="M73.5833 74.5834C70.7125 74.5834 68.375 72.2459 68.375 69.375C68.375 66.5042 70.7125 64.1667 73.5833 64.1667C76.4542 64.1667 78.7917 66.5042 78.7917 69.375C78.7917 72.2459 76.4542 74.5834 73.5833 74.5834ZM73.5833 67.2917C72.4354 67.2917 71.5 68.2271 71.5 69.375C71.5 70.523 72.4354 71.4584 73.5833 71.4584C74.7313 71.4584 75.6667 70.523 75.6667 69.375C75.6667 68.2271 74.7313 67.2917 73.5833 67.2917Z" fill="#2F3130"/>
<path d="M83.9998 83.4375H80.8748V82.3958C80.8748 80.9604 79.7061 79.7916 78.2707 79.7916H68.8957C67.4603 79.7916 66.2915 80.9604 66.2915 82.3958V83.4375H63.1665V82.3958C63.1665 79.2354 65.7353 76.6666 68.8957 76.6666H78.2707C81.4311 76.6666 83.9998 79.2354 83.9998 82.3958V83.4375Z" fill="#2F3130"/>
<path d="M44.4168 74.5834C41.546 74.5834 39.2085 72.2459 39.2085 69.375C39.2085 66.5042 41.546 64.1667 44.4168 64.1667C47.2877 64.1667 49.6252 66.5042 49.6252 69.375C49.6252 72.2459 47.2877 74.5834 44.4168 74.5834ZM44.4168 67.2917C43.2689 67.2917 42.3335 68.2271 42.3335 69.375C42.3335 70.523 43.2689 71.4584 44.4168 71.4584C45.5647 71.4584 46.5002 70.523 46.5002 69.375C46.5002 68.2271 45.5647 67.2917 44.4168 67.2917Z" fill="#2F3130"/>
<path d="M54.8333 83.4375H51.7083V82.3958C51.7083 80.9604 50.5396 79.7916 49.1042 79.7916H39.7292C38.2938 79.7916 37.125 80.9604 37.125 82.3958V83.4375H34V82.3958C34 79.2354 36.5688 76.6666 39.7292 76.6666H49.1042C52.2646 76.6666 54.8333 79.2354 54.8333 82.3958V83.4375Z" fill="#2F3130"/>
<path d="M41.2915 60.0251H38.1665C38.1665 51.9501 42.8998 44.5313 50.2248 41.1251L51.5436 43.9584C45.3144 46.8543 41.2915 53.1605 41.2915 60.0251Z" fill="#2F3130"/>
<path d="M79.8331 60.0251H76.7081C76.7081 53.1605 72.6852 46.8542 66.4581 43.9584L67.7768 41.1251C75.0998 44.5313 79.8331 51.9501 79.8331 60.0251Z" fill="#2F3130"/>
<path d="M59 80.8584C58.2625 80.8584 57.5375 80.8188 56.8208 80.7459L57.1458 77.6376C58.402 77.7688 59.7145 77.7605 60.9729 77.6251L61.3145 80.7313C60.5562 80.8147 59.7833 80.8584 59 80.8584Z" fill="#2F3130"/>
<defs>
<filter id="filter0_d_1_338" x="0" y="0" width="130" height="130" filterUnits="userSpaceOnUse" color-interpolation-filters="sRGB">
<feFlood flood-opacity="0" result="BackgroundImageFix"/>
<feColorMatrix in="SourceAlpha" type="matrix" values="0 0 0 0 0 0 0 0 0 0 0 0 0 0 0 0 0 0 127 0" result="hardAlpha"/>
<feOffset dx="6" dy="6"/>
<feGaussianBlur stdDeviation="10"/>
<feComposite in2="hardAlpha" operator="out"/>
<feColorMatrix type="matrix" values="0 0 0 0 0.490196 0 0 0 0 0.34902 0 0 0 0 0.764706 0 0 0 0.2 0"/>
<feBlend mode="normal" in2="BackgroundImageFix" result="effect1_dropShadow_1_338"/>
<feBlend mode="normal" in="SourceGraphic" in2="effect1_dropShadow_1_338" result="shape"/>
</filter>
</defs>
</svg>
