<svg width="130" height="130" viewBox="0 0 130 130" fill="none" xmlns="http://www.w3.org/2000/svg">
<g filter="url(#filter0_d_1_297)">
<circle cx="59" cy="59" r="45" fill="white"/>
</g>
<path d="M71.1875 67.4062C73.5175 67.4062 75.4062 65.5174 75.4062 63.1874C75.4062 60.8575 73.5175 58.9687 71.1875 58.9687C68.8575 58.9687 66.9688 60.8575 66.9688 63.1874C66.9688 65.5174 68.8575 67.4062 71.1875 67.4062Z" fill="white"/>
<path d="M80.0938 81.0001V76.7813C80.0938 74.7094 78.4156 73.0313 76.3438 73.0313H66.0313C63.9594 73.0313 62.2812 74.7094 62.2812 76.7813V81.0001H80.0938Z" fill="white"/>
<path d="M44 70.2188C45.2944 70.2188 46.3438 69.1695 46.3438 67.8751C46.3438 66.5806 45.2944 65.5313 44 65.5313C42.7056 65.5313 41.6562 66.5806 41.6562 67.8751C41.6562 69.1695 42.7056 70.2188 44 70.2188Z" fill="white"/>
<path d="M50.0937 81.0001V78.6563C50.0937 76.5844 48.4156 74.9063 46.3437 74.9063H41.6562C39.5844 74.9063 37.9062 76.5844 37.9062 78.6563V81.0001H50.0937Z" fill="white"/>
<path d="M37.9062 41.1562V55.2188C37.9062 57.2812 39.5938 58.9688 41.6562 58.9688H51.5L57.5938 64.5938V58.9688H59.4688C61.5312 58.9688 63.2188 57.2812 63.2188 55.2188V41.1562C63.2188 39.0938 61.5312 37.4062 59.4688 37.4062H41.6562C39.5938 37.4062 37.9062 39.0938 37.9062 41.1562Z" fill="#CF91A4"/>
<path d="M71.1875 63.1874C71.1875 61.6293 72.0406 60.2849 73.2969 59.5537C72.6744 59.1918 71.96 58.9687 71.1875 58.9687C68.8569 58.9687 66.9688 60.8568 66.9688 63.1874C66.9688 65.5181 68.8569 67.4062 71.1875 67.4062C71.96 67.4062 72.6744 67.1831 73.2969 66.8212C72.0406 66.0899 71.1875 64.7456 71.1875 63.1874Z" fill="white"/>
<path d="M70.25 73.0313H66.0312C63.9594 73.0313 62.2812 74.7094 62.2812 76.7813V81.0001H66.5V76.7813C66.5 74.7094 68.1781 73.0313 70.25 73.0313Z" fill="white"/>
<path d="M45.875 67.8751C45.875 67.5188 45.9669 67.1907 46.1094 66.8888C45.7344 66.0919 44.9375 65.5313 44 65.5313C42.7063 65.5313 41.6562 66.5813 41.6562 67.8751C41.6562 69.1688 42.7063 70.2188 44 70.2188C44.9375 70.2188 45.7344 69.6582 46.1094 68.8613C45.9669 68.5594 45.875 68.2313 45.875 67.8751Z" fill="white"/>
<path d="M45.875 74.9063H41.6563C39.5844 74.9063 37.9062 76.5844 37.9062 78.6563V81.0001H42.125V78.6563C42.125 76.5844 43.8031 74.9063 45.875 74.9063Z" fill="white"/>
<path d="M55.7187 58.9687H51.5L57.5937 64.5937V60.6993L55.7187 58.9687Z" fill="#9E2349"/>
<path d="M42.125 55.2188V41.1563C42.125 39.0938 43.8125 37.4062 45.875 37.4062H41.6563C39.5938 37.4062 37.9062 39.0938 37.9062 41.1563V55.2188C37.9062 57.2813 39.5938 58.9688 41.6563 58.9688H45.875C43.8125 58.9688 42.125 57.2813 42.125 55.2188Z" fill="#9E2349"/>
<path d="M71.1875 68.8125C68.0862 68.8125 65.5625 66.2887 65.5625 63.1875C65.5625 60.0862 68.0862 57.5625 71.1875 57.5625C74.2887 57.5625 76.8125 60.0862 76.8125 63.1875C76.8125 66.2887 74.2887 68.8125 71.1875 68.8125ZM71.1875 60.375C69.6369 60.375 68.375 61.6369 68.375 63.1875C68.375 64.7381 69.6369 66 71.1875 66C72.7381 66 74 64.7381 74 63.1875C74 61.6369 72.7381 60.375 71.1875 60.375Z" fill="#2F3130"/>
<path d="M81.5 80.9999H78.6875V76.7812C78.6875 75.4893 77.6356 74.4374 76.3437 74.4374H66.0312C64.7394 74.4374 63.6875 75.4893 63.6875 76.7812V80.9999H60.875V76.7812C60.875 73.9368 63.1869 71.6249 66.0312 71.6249H76.3437C79.1881 71.6249 81.5 73.9368 81.5 76.7812V80.9999Z" fill="#2F3130"/>
<path d="M57.5938 66C57.2469 66 56.9056 65.8725 56.6394 65.6269L50.9506 60.375H41.6563C38.8119 60.375 36.5 58.0631 36.5 55.2188V41.1563C36.5 38.3119 38.8119 36 41.6563 36H59.4688C62.3131 36 64.625 38.3119 64.625 41.1563V55.2188C64.625 58.0631 62.3131 60.375 59.4688 60.375H59V64.5938C59 65.1525 58.6681 65.6569 58.1581 65.8838C57.9763 65.9606 57.785 66 57.5938 66ZM41.6563 38.8125C40.3644 38.8125 39.3125 39.8644 39.3125 41.1563V55.2188C39.3125 56.5106 40.3644 57.5625 41.6563 57.5625H51.5C51.8525 57.5625 52.1938 57.6956 52.4544 57.9356L56.1875 61.3819V58.9688C56.1875 58.1925 56.8175 57.5625 57.5938 57.5625H59.4688C60.7606 57.5625 61.8125 56.5106 61.8125 55.2188V41.1563C61.8125 39.8644 60.7606 38.8125 59.4688 38.8125H41.6563Z" fill="#2F3130"/>
<path d="M51.9687 52.4062H49.1562V50.5706C49.1562 48.8081 50.0712 47.1244 51.6687 45.9525C52.1581 45.5944 52.4375 45.0431 52.4375 44.4375C52.4375 43.4025 51.5975 42.5625 50.5625 42.5625C49.5275 42.5625 48.6875 43.4025 48.6875 44.4375V45.8438H45.875V44.4375C45.875 41.8519 47.9769 39.75 50.5625 39.75C53.1481 39.75 55.25 41.8519 55.25 44.4375C55.25 45.9262 54.5319 47.34 53.3319 48.2212C52.8237 48.5925 51.9687 49.395 51.9687 50.5706V52.4062Z" fill="#2F3130"/>
<path d="M44 71.6249C41.9319 71.6249 40.25 69.9431 40.25 67.8749C40.25 65.8068 41.9319 64.1249 44 64.1249C46.0681 64.1249 47.75 65.8068 47.75 67.8749C47.75 69.9431 46.0681 71.6249 44 71.6249ZM44 66.9374C43.4844 66.9374 43.0625 67.3593 43.0625 67.8749C43.0625 68.3906 43.4844 68.8124 44 68.8124C44.5156 68.8124 44.9375 68.3906 44.9375 67.8749C44.9375 67.3593 44.5156 66.9374 44 66.9374Z" fill="#2F3130"/>
<path d="M51.5 80.9999H48.6875V78.6562C48.6875 77.3643 47.6356 76.3124 46.3438 76.3124H41.6563C40.3644 76.3124 39.3125 77.3643 39.3125 78.6562V80.9999H36.5V78.6562C36.5 75.8118 38.8119 73.4999 41.6563 73.4999H46.3438C49.1881 73.4999 51.5 75.8118 51.5 78.6562V80.9999Z" fill="#2F3130"/>
<path d="M50.5625 56.6251C51.3392 56.6251 51.9688 55.9955 51.9688 55.2188C51.9688 54.4422 51.3392 53.8126 50.5625 53.8126C49.7859 53.8126 49.1562 54.4422 49.1562 55.2188C49.1562 55.9955 49.7859 56.6251 50.5625 56.6251Z" fill="#2F3130"/>
<path d="M29 78.1876H89V81.0001H29V78.1876Z" fill="#2F3130"/>
<defs>
<filter id="filter0_d_1_297" x="0" y="0" width="130" height="130" filterUnits="userSpaceOnUse" color-interpolation-filters="sRGB">
<feFlood flood-opacity="0" result="BackgroundImageFix"/>
<feColorMatrix in="SourceAlpha" type="matrix" values="0 0 0 0 0 0 0 0 0 0 0 0 0 0 0 0 0 0 127 0" result="hardAlpha"/>
<feOffset dx="6" dy="6"/>
<feGaussianBlur stdDeviation="10"/>
<feComposite in2="hardAlpha" operator="out"/>
<feColorMatrix type="matrix" values="0 0 0 0 0.490196 0 0 0 0 0.34902 0 0 0 0 0.764706 0 0 0 0.2 0"/>
<feBlend mode="normal" in2="BackgroundImageFix" result="effect1_dropShadow_1_297"/>
<feBlend mode="normal" in="SourceGraphic" in2="effect1_dropShadow_1_297" result="shape"/>
</filter>
</defs>
</svg>
