<svg width="130" height="130" viewBox="0 0 130 130" fill="none" xmlns="http://www.w3.org/2000/svg">
<g filter="url(#filter0_d_1_273)">
<circle cx="59" cy="59" r="45" fill="white"/>
</g>
<path d="M35.5596 66.7471H66.2275V76.1034H35.5596V66.7471Z" fill="white"/>
<path d="M45.4355 35.5594H55.8314V66.7471H45.4355V35.5594Z" fill="white"/>
<path d="M80.8252 69.4354L79.376 62.8715C79.0434 61.3661 77.8769 60.1873 76.3758 59.8421L70.7662 58.553C70.1798 58.4179 69.5706 58.4179 68.9843 58.553L63.3539 59.8442C61.8527 60.1893 60.6842 61.3682 60.3515 62.8736L58.9023 69.4354C58.9023 72.6748 59.9419 76.6835 62.5201 79.3698C64.2375 81.1599 66.639 82.3617 69.8721 82.3617C73.1073 82.3617 75.5088 81.1495 77.2241 79.3698C79.7856 76.7126 80.819 72.7892 80.819 69.7369C80.8252 69.6662 80.8252 69.4354 80.8252 69.4354Z" fill="#CF91A4"/>
<path d="M35.5596 66.7471H40.2377V76.1034H35.5596V66.7471Z" fill="#DCDCDC"/>
<path d="M45.4355 35.5594H50.1136V66.7471H45.4355V35.5594Z" fill="#DCDCDC"/>
<path d="M67.2022 79.3698C64.622 76.6835 63.5844 72.6748 63.5844 69.4355L65.0336 62.8736C65.3663 61.3683 66.5348 60.1873 68.036 59.8442L72.2151 58.8857L70.7701 58.553C70.1838 58.4179 69.5746 58.4179 68.9882 58.553L63.3578 59.8442C61.8567 60.1894 60.6882 61.3683 60.3555 62.8736L58.9063 69.4355C58.9063 72.6748 59.9459 76.6835 62.5241 79.3698C64.2415 81.16 66.6429 82.3617 69.876 82.3617C70.7119 82.3617 71.4874 82.2744 72.213 82.1247C70.1297 81.6943 68.4768 80.6963 67.2022 79.3698Z" fill="#9E2349"/>
<path d="M74.5984 73.5065C73.7376 73.5065 73.039 72.8079 73.039 71.9472C73.039 71.0864 73.7376 70.3878 74.5984 70.3878C75.4592 70.3878 76.1578 71.0885 76.1578 71.9472C76.1578 72.8058 75.4592 73.5065 74.5984 73.5065Z" fill="#2F3130"/>
<path d="M65.3831 73.3777C64.5598 73.3777 63.8882 72.7082 63.8882 71.8827C63.8882 71.0594 64.5577 70.3878 65.3831 70.3878C66.2086 70.3878 66.8781 71.0594 66.8781 71.8827C66.876 72.7082 66.2065 73.3777 65.3831 73.3777Z" fill="#2F3130"/>
<path d="M69.8783 83.921C66.5121 83.921 63.5804 82.7214 61.4014 80.4488C58.8628 77.8062 57.3491 73.6894 57.3491 69.4354C57.3491 69.3044 57.3658 69.1797 57.3928 69.0591L58.8316 62.5367C59.2932 60.4513 60.9315 58.7962 63.0086 58.3222L68.637 57.031C69.45 56.8481 70.3045 56.8481 71.1154 57.031L76.725 58.3222C78.8 58.7983 80.4363 60.4513 80.8979 62.5325L82.345 69.0986C82.37 69.2088 82.3825 69.319 82.3825 69.4333V69.7348C82.3825 72.8952 81.3242 77.3675 78.353 80.4488C76.1657 82.7214 73.2341 83.921 69.8783 83.921ZM60.4679 69.5997C60.5053 72.2839 61.3578 75.9016 63.649 78.2885C65.25 79.9581 67.3437 80.8023 69.8762 80.8023C72.4024 80.8023 74.4982 79.956 76.1054 78.2865C78.4341 75.8725 79.2637 72.286 79.2637 69.7369V69.6059L77.8519 63.2062C77.6502 62.2955 76.935 61.5699 76.0264 61.3599L70.4168 60.0708C70.0633 59.9939 69.6891 59.9918 69.3335 60.0729L63.7052 61.364C62.7945 61.5719 62.0793 62.2955 61.8776 63.2103L60.4679 69.5997Z" fill="#2F3130"/>
<path d="M69.8784 79.7544C68.3357 79.7544 66.8865 79.1535 65.7949 78.0599L68.0051 75.858C69.0031 76.8602 70.7538 76.8602 71.7539 75.858L73.964 78.0599C72.8704 79.1535 71.4212 79.7544 69.8784 79.7544Z" fill="#2F3130"/>
<path d="M82.1308 71.5707L80.8833 70.6351C80.8521 70.6143 77.1346 67.953 69.8761 67.953C62.6136 67.953 58.8711 70.6164 58.8336 70.6434L57.5799 71.5541L55.7315 69.0674L56.9728 68.1401C57.1536 68.0049 61.4929 64.8342 69.8741 64.8342C78.2552 64.8342 82.5737 68.0049 82.7525 68.1422L84 69.0778L82.1308 71.5707Z" fill="#2F3130"/>
<path d="M54.7918 77.6628H35.5594C34.6986 77.6628 34 76.9642 34 76.1034V66.7471C34 65.8863 34.6986 65.1877 35.5594 65.1877H52.7126V68.3065H37.1188V74.544H54.7918V77.6628Z" fill="#2F3130"/>
<path d="M46.9947 68.3064H43.876V35.5594C43.876 34.6986 44.5746 34 45.4354 34H55.8313C56.692 34 57.3906 34.6986 57.3906 35.5594V62.5887H54.2719V37.1188H46.9947V68.3064Z" fill="#2F3130"/>
<path d="M41.277 66.7471H38.1582V41.2772C38.1582 40.4164 38.8568 39.7178 39.7176 39.7178H45.4353V42.8365H41.277V66.7471Z" fill="#2F3130"/>
<path d="M39.7177 45.9553H45.4355V49.0741H39.7177V45.9553Z" fill="#2F3130"/>
<path d="M39.7177 52.1928H45.4355V55.3116H39.7177V52.1928Z" fill="#2F3130"/>
<path d="M39.7177 58.4304H45.4355V61.5491H39.7177V58.4304Z" fill="#2F3130"/>
<path d="M50.6333 58.4304H57.3906V61.5491H50.6333V58.4304Z" fill="#2F3130"/>
<path d="M50.6333 52.1928H57.3906V55.3116H50.6333V52.1928Z" fill="#2F3130"/>
<path d="M50.6333 45.9553H57.3906V49.074H50.6333V45.9553Z" fill="#2F3130"/>
<path d="M50.6333 39.7178H57.3906V42.8365H50.6333V39.7178Z" fill="#2F3130"/>
<defs>
<filter id="filter0_d_1_273" x="0" y="0" width="130" height="130" filterUnits="userSpaceOnUse" color-interpolation-filters="sRGB">
<feFlood flood-opacity="0" result="BackgroundImageFix"/>
<feColorMatrix in="SourceAlpha" type="matrix" values="0 0 0 0 0 0 0 0 0 0 0 0 0 0 0 0 0 0 127 0" result="hardAlpha"/>
<feOffset dx="6" dy="6"/>
<feGaussianBlur stdDeviation="10"/>
<feComposite in2="hardAlpha" operator="out"/>
<feColorMatrix type="matrix" values="0 0 0 0 0.490196 0 0 0 0 0.34902 0 0 0 0 0.764706 0 0 0 0.2 0"/>
<feBlend mode="normal" in2="BackgroundImageFix" result="effect1_dropShadow_1_273"/>
<feBlend mode="normal" in="SourceGraphic" in2="effect1_dropShadow_1_273" result="shape"/>
</filter>
</defs>
</svg>
